<svg width="24" height="24" viewBox="0 0 24 24" fill="none" xmlns="http://www.w3.org/2000/svg">
<path d="M12 22.7499C6.8 22.7499 2.58 18.5199 2.58 13.3299C2.58 8.1399 6.8 3.8999 12 3.8999C13.07 3.8999 14.11 4.0499 15.11 4.3599C15.51 4.4799 15.73 4.8999 15.61 5.2999C15.49 5.6999 15.07 5.9199 14.67 5.7999C13.82 5.5399 12.92 5.3999 12 5.3999C7.63 5.3999 4.08 8.9499 4.08 13.3199C4.08 17.6899 7.63 21.2399 12 21.2399C16.37 21.2399 19.92 17.6899 19.92 13.3199C19.92 11.7399 19.46 10.2199 18.59 8.9199C18.36 8.5799 18.45 8.1099 18.8 7.8799C19.14 7.6499 19.61 7.7399 19.84 8.0899C20.88 9.6399 21.43 11.4499 21.43 13.3299C21.42 18.5199 17.2 22.7499 12 22.7499Z" fill="#292D32"/>
<path d="M16.13 6.06996C15.92 6.06996 15.71 5.97996 15.56 5.80996L12.67 2.48996C12.4 2.17996 12.43 1.69996 12.74 1.42996C13.05 1.15996 13.53 1.18996 13.8 1.49996L16.69 4.81996C16.96 5.12996 16.93 5.60996 16.62 5.87996C16.49 6.00996 16.31 6.06996 16.13 6.06996Z" fill="#292D32"/>
<path d="M12.76 8.52996C12.53 8.52996 12.3 8.41996 12.15 8.21996C11.91 7.88996 11.98 7.41996 12.31 7.16996L15.68 4.70996C16.01 4.45996 16.48 4.53996 16.73 4.86996C16.98 5.19996 16.9 5.66996 16.57 5.91996L13.2 8.38996C13.07 8.48996 12.92 8.52996 12.76 8.52996Z" fill="#292D32"/>
</svg>
