<svg width="56" height="56" viewBox="0 0 56 56" fill="none" xmlns="http://www.w3.org/2000/svg">
<path d="M28 8.16602L35 15.166M28 33.8327V8.16602V33.8327ZM28 8.16602L21 15.166L28 8.16602Z" stroke="#DBE0DF" stroke-width="3" stroke-linecap="round" stroke-linejoin="round"/>
<path d="M37.3334 44.334H18.6667C16.3653 44.334 15.6221 44.323 15.0559 44.2334C11.5614 43.6799 8.82076 40.9392 8.26729 37.4448C8.17762 36.8785 8.16675 36.1354 8.16675 33.834C8.16675 31.5326 8.17762 30.7895 8.26729 30.2232C8.82076 26.7288 11.5614 23.988 15.0559 23.4346C15.6221 23.345 16.3653 23.334 18.6667 23.334H19.2501C20.2166 23.334 21.0001 22.5505 21.0001 21.584C21.0001 20.6175 20.2166 19.834 19.2501 19.834H18.6667C16.4991 19.834 15.4152 19.834 14.5084 19.9776C9.51628 20.7683 5.60106 24.6836 4.81039 29.6755C4.66675 30.5825 4.66675 31.6663 4.66675 33.834C4.66675 36.0016 4.66675 37.0855 4.81039 37.9925C5.60106 42.9844 9.51625 46.8997 14.5084 47.6903C15.4152 47.834 16.4991 47.834 18.6667 47.834H37.3334C39.5011 47.834 40.5849 47.834 41.4919 47.6903C46.4838 46.8997 50.3991 42.9844 51.1897 37.9925C51.3334 37.0855 51.3334 36.0016 51.3334 33.834C51.3334 31.6663 51.3334 30.5825 51.1897 29.6755C50.3991 24.6836 46.4838 20.7683 41.4919 19.9776C40.5849 19.834 39.5011 19.834 37.3334 19.834H36.7501C35.7836 19.834 35.0001 20.6175 35.0001 21.584C35.0001 22.5505 35.7836 23.334 36.7501 23.334H37.3334C39.6348 23.334 40.3779 23.345 40.9442 23.4346C44.4386 23.988 47.1794 26.7288 47.7328 30.2232C47.8224 30.7895 47.8334 31.5326 47.8334 33.834C47.8334 36.1354 47.8224 36.8785 47.7328 37.4448C47.1794 40.9392 44.4386 43.6799 40.9442 44.2334C40.3779 44.323 39.6348 44.334 37.3334 44.334Z" fill="#DBE0DF"/>
</svg>
